<?xml version="1.0" standalone="no"?>
<!DOCTYPE svg PUBLIC "-//W3C//DTD SVG 20010904//EN"
 "http://www.w3.org/TR/2001/REC-SVG-20010904/DTD/svg10.dtd">
<svg version="1.0" xmlns="http://www.w3.org/2000/svg"
 width="298.000000pt" height="301.000000pt" viewBox="0 0 298.000000 301.000000"
 preserveAspectRatio="xMidYMid meet">

<g transform="translate(0.000000,301.000000) scale(0.100000,-0.100000)"
fill="#000000" stroke="none">
<path d="M1212 2263 c-45 -20 -81 -41 -79 -47 5 -15 71 -9 129 11 45 16 49 16
107 -8 34 -13 61 -29 61 -35 0 -15 26 -26 71 -29 35 -3 36 -2 37 35 2 50 -17
66 -113 90 -103 26 -116 25 -213 -17z"/>
<path d="M1562 2185 l3 -48 81 -31 c45 -17 88 -37 96 -43 13 -11 14 -8 9 22
-5 30 -16 40 -91 86 -47 28 -89 53 -93 56 -5 3 -7 -16 -5 -42z"/>
<path d="M1064 2195 c-18 -15 -18 -15 10 -13 16 2 31 9 34 16 5 17 -20 15 -44
-3z"/>
<path d="M1267 2178 c-8 -27 8 -47 24 -31 8 8 7 17 -4 33 l-14 21 -6 -23z"/>
<path d="M1310 2127 c0 -7 13 -26 30 -42 16 -15 35 -44 41 -64 6 -20 33 -68
59 -108 27 -39 53 -88 60 -107 6 -20 18 -36 26 -36 15 0 13 44 -7 120 -6 23
-4 52 5 90 8 30 17 76 21 103 l6 47 -39 0 c-35 0 -41 -4 -52 -30 -7 -17 -17
-33 -21 -36 -5 -3 -30 13 -56 35 -47 42 -73 52 -73 28z"/>
<path d="M1346 1934 c-30 -30 -13 -74 29 -74 44 0 63 60 26 80 -27 14 -37 13
-55 -6z"/>
<path d="M1530 1718 c0 -19 2 -20 10 -8 13 19 13 30 0 30 -5 0 -10 -10 -10
-22z"/>
<path d="M1160 1615 l0 -35 295 0 295 0 0 35 0 35 -295 0 -295 0 0 -35z"/>
<path d="M389 1331 c-27 -27 -29 -35 -29 -104 l0 -74 71 -98 c68 -94 71 -100
66 -143 -5 -49 -21 -66 -49 -51 -14 7 -18 22 -18 59 l0 50 -35 0 -35 0 0 -56
c0 -80 23 -116 84 -128 34 -7 86 16 105 46 8 13 16 52 19 88 l4 65 -71 99
c-70 95 -72 100 -69 150 3 44 6 51 25 54 28 4 45 -27 41 -76 -3 -36 -2 -37 32
-37 l35 0 -1 64 c-1 59 -4 67 -33 93 -44 40 -101 39 -142 -1z"/>
<path d="M650 1070 l0 -280 35 0 35 0 0 60 0 60 43 0 c34 0 49 6 68 26 23 25
24 32 27 190 l3 164 -30 30 c-28 28 -34 30 -105 30 l-76 0 0 -280z m135 60 l0
-145 -32 -3 -33 -3 0 151 0 151 33 -3 32 -3 0 -145z"/>
<path d="M987 1330 c-39 -31 -47 -77 -47 -260 0 -231 14 -267 104 -277 42 -5
48 -3 76 27 l30 32 0 220 0 220 -29 29 c-37 36 -94 40 -134 9z m88 -260 l0
-205 -25 0 -25 0 -3 195 c-1 107 0 200 3 208 3 7 15 12 27 10 l23 -3 0 -205z"/>
<path d="M1240 1070 l0 -280 35 0 35 0 0 61 c0 76 16 75 43 -4 18 -56 19 -57
58 -57 21 0 39 1 39 3 0 2 -11 30 -24 63 l-24 59 21 23 c20 21 22 36 25 159 4
161 -1 197 -33 229 -21 21 -33 24 -100 24 l-75 0 0 -280z m135 60 l0 -145 -32
-3 -33 -3 0 151 0 151 33 -3 32 -3 0 -145z"/>
<path d="M1520 1315 l0 -35 50 0 50 0 0 -245 0 -245 41 0 40 0 -2 243 -2 242
46 3 c46 3 47 4 47 38 l0 34 -135 0 -135 0 0 -35z"/>
<path d="M1870 1070 l0 -280 35 0 35 0 0 280 0 280 -35 0 -35 0 0 -280z"/>
<path d="M2020 1070 l0 -280 35 0 35 0 0 150 0 150 55 0 55 0 0 35 0 35 -55 0
-55 0 0 60 0 60 55 0 55 0 0 35 0 35 -90 0 -90 0 0 -280z"/>
<path d="M2305 1303 c74 -256 85 -311 85 -411 l0 -102 35 0 35 0 0 111 c0 106
3 120 50 274 28 89 50 166 50 169 0 4 -16 6 -36 4 l-36 -3 -32 -100 -33 -100
-16 55 c-9 30 -22 76 -29 103 -12 45 -13 47 -50 47 l-37 0 14 -47z"/>
<path d="M2464 714 c-18 -14 -18 -14 6 -3 31 14 36 19 24 19 -6 0 -19 -7 -30
-16z"/>
</g>
</svg>
