<?xml version="1.0" standalone="no"?>
<!DOCTYPE svg PUBLIC "-//W3C//DTD SVG 20010904//EN"
 "http://www.w3.org/TR/2001/REC-SVG-20010904/DTD/svg10.dtd">
<svg version="1.0" xmlns="http://www.w3.org/2000/svg"
 width="200.000000pt" height="160.000000pt" viewBox="0 0 200.000000 160.000000"
 preserveAspectRatio="xMidYMid meet">

<g transform="translate(0.000000,160.000000) scale(0.100000,-0.100000)"
fill="#000000" stroke="none">
<path d="M503 1463 c-56 -26 -100 -50 -97 -55 3 -4 -1 -5 -9 -2 -16 6 -117
-41 -117 -54 0 -4 7 -16 15 -27 14 -18 20 -18 93 -7 42 6 112 24 154 40 98 38
129 45 126 32 -2 -6 40 -28 92 -50 108 -45 103 -44 94 -27 -4 7 -3 9 2 4 5 -5
9 -12 9 -15 5 -59 59 -92 153 -92 39 0 73 3 75 8 3 4 -27 6 -66 4 -62 -3 -77
0 -106 20 -19 13 -36 29 -37 36 -1 7 0 8 3 2 3 -6 22 -19 44 -30 41 -21 139
-28 139 -9 0 5 4 8 8 5 9 -5 0 104 -11 120 -11 18 -88 52 -180 79 -47 14 -71
25 -57 25 l25 2 -25 8 c-14 4 -36 8 -50 8 l-25 0 25 -9 c16 -5 4 -6 -35 -2
-71 7 -83 13 -29 14 l39 1 -40 9 c-74 15 -108 9 -212 -38z m150 30 c-7 -2 -19
-2 -25 0 -7 3 -2 5 12 5 14 0 19 -2 13 -5z m-58 -13 c-27 -12 -43 -12 -25 0 8
5 22 9 30 9 10 0 8 -3 -5 -9z m-45 -14 c0 -2 -7 -7 -16 -10 -8 -3 -12 -2 -9 4
6 10 25 14 25 6z m-50 -26 c-8 -5 -19 -10 -25 -10 -5 0 -3 5 5 10 8 5 20 10
25 10 6 0 3 -5 -5 -10z m-50 -20 c-8 -5 -19 -10 -25 -10 -5 0 -3 5 5 10 8 5
20 10 25 10 6 0 3 -5 -5 -10z m280 -46 c23 -9 39 -18 37 -20 -2 -3 -24 4 -48
15 -54 24 -45 27 11 5z m80 -34 c8 -5 11 -10 5 -10 -5 0 -17 5 -25 10 -8 5
-10 10 -5 10 6 0 17 -5 25 -10z"/>
<path d="M875 1460 c11 -5 27 -9 35 -9 13 -1 13 0 0 9 -8 5 -24 9 -35 9 l-20
0 20 -9z"/>
<path d="M940 1440 c8 -5 22 -10 30 -10 13 0 13 1 0 10 -8 5 -22 10 -30 10
-13 0 -13 -1 0 -10z"/>
<path d="M1029 1405 c24 -14 46 -24 48 -21 6 6 -62 46 -78 46 -8 0 6 -12 30
-25z"/>
<path d="M1087 1324 c3 -27 7 -51 9 -53 8 -9 3 75 -5 88 -5 8 -7 -5 -4 -35z"/>
<path d="M1150 1355 c0 -2 24 -17 53 -31 28 -15 70 -39 92 -54 54 -36 65 -42
65 -36 0 3 -25 21 -55 40 -62 40 -155 89 -155 81z"/>
<path d="M195 1321 c-27 -12 -65 -54 -45 -50 8 1 23 -1 33 -6 25 -10 60 21 38
34 -7 5 -10 14 -7 20 8 13 8 13 -19 2z"/>
<path d="M1152 1271 c-3 -53 0 -62 20 -75 26 -16 194 -84 223 -89 28 -5 82
-27 139 -56 5 -2 6 2 2 10 -4 8 0 5 9 -6 16 -20 16 -20 13 5 -4 31 -16 50 -31
50 -6 0 -2 -7 9 -16 18 -14 18 -15 -4 -4 -12 6 -20 15 -17 20 3 5 -16 21 -42
36 -27 14 -70 40 -98 57 -135 82 -210 127 -215 127 -3 0 -6 -27 -8 -59z"/>
<path d="M570 1292 c0 -7 7 -23 16 -36 10 -16 12 -26 5 -31 -6 -3 -11 1 -11 9
0 9 -6 13 -14 10 -11 -4 -13 0 -10 18 4 17 1 14 -12 -9 -13 -25 -14 -36 -5
-47 15 -18 49 -27 57 -15 3 5 -6 9 -20 9 -19 0 -24 4 -19 16 4 10 8 12 13 5 4
-7 14 -9 26 -4 20 8 20 9 -3 48 -12 22 -23 34 -23 27z m-23 -74 c-3 -8 -6 -5
-6 6 -1 11 2 17 5 13 3 -3 4 -12 1 -19z"/>
<path d="M1133 1255 c0 -22 2 -30 4 -17 2 12 2 30 0 40 -3 9 -5 -1 -4 -23z"/>
<path d="M1370 1226 c0 -3 35 -23 78 -46 79 -42 144 -95 196 -160 19 -24 24
-27 15 -10 -25 50 -129 140 -209 180 -44 22 -80 38 -80 36z"/>
<path d="M689 1168 c24 -12 74 -49 109 -82 42 -39 57 -49 42 -29 -36 50 -149
133 -181 133 -8 0 6 -10 30 -22z"/>
<path d="M1147 1179 c7 -7 15 -10 18 -7 3 3 -2 9 -12 12 -14 6 -15 5 -6 -5z"/>
<path d="M630 1160 c0 -7 25 -39 55 -72 30 -33 64 -76 75 -96 10 -20 19 -32
20 -26 0 5 -13 30 -29 55 -38 58 -121 154 -121 139z"/>
<path d="M662 1153 c99 -117 133 -173 124 -201 -9 -29 30 -119 71 -166 22 -25
65 -91 96 -148 31 -57 57 -99 57 -94 0 18 -93 182 -140 246 -46 62 -81 130
-79 154 0 6 9 -11 20 -38 11 -26 39 -74 62 -105 90 -118 210 -352 166 -326 -8
6 -8 2 0 -14 13 -24 23 -28 14 -6 -3 10 0 15 8 13 8 -2 13 4 13 14 -5 67 -16
133 -29 184 -21 79 -21 128 4 215 17 62 51 236 51 262 0 4 -27 7 -60 7 -50 0
-61 -3 -70 -21 -7 -11 -14 -18 -17 -16 -2 3 0 14 6 26 9 16 23 21 79 24 l67 3
-67 2 c-62 2 -69 0 -84 -23 -8 -13 -13 -29 -9 -35 4 -6 -5 -29 -19 -50 -20
-30 -30 -37 -47 -33 -17 5 -20 3 -14 -8 4 -8 -10 2 -31 22 -89 82 -101 91
-136 110 -46 24 -55 24 -36 2z"/>
<path d="M1190 1160 c8 -5 20 -10 25 -10 6 0 3 5 -5 10 -8 5 -19 10 -25 10 -5
0 -3 -5 5 -10z"/>
<path d="M1111 1134 c0 -11 3 -14 6 -6 3 7 2 16 -1 19 -3 4 -6 -2 -5 -13z"/>
<path d="M1230 1147 c0 -7 190 -80 195 -75 4 4 -45 24 -182 75 -7 3 -13 3 -13
0z"/>
<path d="M1102 1085 c0 -16 2 -22 5 -12 2 9 2 23 0 30 -3 6 -5 -1 -5 -18z"/>
<path d="M905 1064 c-9 -15 -12 -23 -6 -20 11 7 35 46 28 46 -3 0 -12 -12 -22
-26z"/>
<path d="M1570 1052 c0 -5 11 -19 25 -32 14 -13 25 -20 25 -16 0 4 -11 18 -25
32 -14 14 -25 21 -25 16z"/>
<path d="M1559 974 c46 -43 87 -80 90 -82 3 -1 12 8 20 20 13 22 13 22 -6 6
-18 -17 -21 -16 -74 38 -29 31 -67 65 -84 76 -16 12 8 -14 54 -58z"/>
<path d="M1091 1025 c0 -11 -12 -67 -26 -124 -14 -58 -24 -109 -22 -115 6 -17
59 221 54 241 -4 16 -5 16 -6 -2z"/>
<path d="M1677 959 c4 -13 8 -18 11 -10 2 7 -1 18 -6 23 -8 8 -9 4 -5 -13z"/>
<path d="M1690 856 c0 -8 4 -17 9 -20 5 -4 7 3 4 14 -6 23 -13 26 -13 6z"/>
<path d="M1781 854 c0 -11 3 -14 6 -6 3 7 2 16 -1 19 -3 4 -6 -2 -5 -13z"/>
<path d="M1792 800 c0 -14 2 -19 5 -12 2 6 2 18 0 25 -3 6 -5 1 -5 -13z"/>
<path d="M711 785 c-26 -22 -29 -30 -24 -63 3 -20 10 -41 14 -46 16 -18 9 -29
-8 -16 -10 7 -5 1 10 -14 15 -14 33 -26 40 -26 7 1 1 7 -13 16 l-25 15 25 -7
c14 -3 29 -10 35 -15 33 -32 95 22 95 83 0 30 -7 46 -29 69 -37 37 -79 38
-120 4z m50 5 c-19 -5 -43 -19 -53 -32 -9 -12 -18 -18 -18 -11 0 19 51 53 79
52 23 -1 21 -2 -8 -9z m70 -17 c13 -17 13 -17 -6 -3 -11 8 -22 16 -24 17 -2 2
0 3 6 3 6 0 17 -8 24 -17z m13 -95 c-17 -31 -39 -48 -58 -47 -19 0 -19 1 3 10
14 5 31 19 38 29 15 22 28 27 17 8z"/>
<path d="M1720 807 c0 -2 15 -16 33 -33 l32 -29 -29 33 c-28 30 -36 37 -36 29z"/>
<path d="M1041 735 c0 -5 8 -41 19 -80 11 -38 18 -54 15 -34 -6 39 -33 130
-34 114z"/>
<path d="M672 705 c0 -16 2 -22 5 -12 2 9 2 23 0 30 -3 6 -5 -1 -5 -18z"/>
<path d="M1082 530 c0 -14 2 -19 5 -12 2 6 2 18 0 25 -3 6 -5 1 -5 -13z"/>
<path d="M1010 525 c0 -5 5 -17 10 -25 5 -8 10 -10 10 -5 0 6 -5 17 -10 25 -5
8 -10 11 -10 5z"/>
<path d="M1091 474 c0 -11 3 -14 6 -6 3 7 2 16 -1 19 -3 4 -6 -2 -5 -13z"/>
<path d="M1095 378 c-8 -31 0 -48 21 -48 18 0 17 17 -1 50 l-13 25 -7 -27z
m12 -30 c-3 -7 -5 -2 -5 12 0 14 2 19 5 13 2 -7 2 -19 0 -25z"/>
<path d="M1061 364 c0 -11 3 -14 6 -6 3 7 2 16 -1 19 -3 4 -6 -2 -5 -13z"/>
<path d="M348 148 l-2 -73 -6 70 -7 70 1 -70 1 -70 135 0 c168 0 789 13 969
21 149 6 172 12 147 36 -8 9 -12 18 -9 21 3 4 13 -3 23 -15 20 -25 50 -19 50
11 0 11 6 22 13 24 6 3 1 6 -13 8 -68 5 -78 4 -72 -6 3 -6 0 -5 -9 1 -9 8
-103 12 -294 14 -154 1 -325 4 -380 5 -55 2 -172 5 -260 6 -88 2 106 6 430 9
l590 5 -652 3 -653 2 -2 -72z m115 55 c-7 -2 -19 -2 -25 0 -7 3 -2 5 12 5 14
0 19 -2 13 -5z m1168 -37 c15 9 10 -13 -6 -26 -13 -11 -14 -10 -9 5 5 13 4 16
-4 11 -8 -5 -10 -1 -5 10 4 11 8 13 11 6 2 -7 8 -10 13 -6z"/>
<path d="M1711 194 c0 -11 3 -14 6 -6 3 7 2 16 -1 19 -3 4 -6 -2 -5 -13z"/>
<path d="M738 63 c7 -3 16 -2 19 1 4 3 -2 6 -13 5 -11 0 -14 -3 -6 -6z"/>
<path d="M1013 63 c115 -2 299 -2 410 0 111 1 18 2 -208 2 -226 0 -316 -1
-202 -2z"/>
<path d="M1643 63 c9 -2 23 -2 30 0 6 3 -1 5 -18 5 -16 0 -22 -2 -12 -5z"/>
</g>
</svg>
